<?xml version="1.0" encoding="UTF-8" standalone="no"?>
<svg width="50px" height="20px" viewBox="0 0 50 20" version="1.1" xmlns="http://www.w3.org/2000/svg" xmlns:xlink="http://www.w3.org/1999/xlink" xmlns:sketch="http://www.bohemiancoding.com/sketch/ns">
    <!-- Generator: Sketch 3.5 (25232) - http://www.bohemiancoding.com/sketch -->
    <title>navis-ui-logo-color</title>
    <desc>Created with Sketch.</desc>
    <defs></defs>
    <g id="Page-1" stroke="none" stroke-width="1" fill="none" fill-rule="evenodd" sketch:type="MSPage">
        <g id="navis-ui-logo-color" sketch:type="MSLayerGroup">
            <g id="Page-1" sketch:type="MSShapeGroup">
                <g id="navis-ui-logo">
                    <g id="Page-1">
                        <g id="navis-logo--inverted" fill="#F47B20">
                            <g id="Group">
                                <path d="M34.615,11.565 C33.819,15.65 24.801,19.019 13.687,19.682 L16.446,14.854 C24.377,14.111 30.186,12.042 30.345,9.602 C30.557,6.525 21.777,4.058 10.69,4.058 C7.003,4.058 3.528,4.323 0.531,4.827 L0.584,4.562 C2.918,4.085 5.491,3.74 8.197,3.554 L10.85,4.88498131e-15 L13.29,3.342 C25.943,3.395 35.465,7.056 34.616,11.565 L34.615,11.565 L34.615,11.565 L34.615,11.565 Z M10.716,11.141 C8.859,11.141 7.188,10.876 6.048,10.478 L10.716,19.178 L16.127,10.239 C14.88,10.796 12.917,11.141 10.716,11.141 L10.716,11.141 L10.716,11.141 L10.716,11.141 Z" id="Shape"></path>
                            </g>
                        </g>
                        <path d="M43.5250103,18.9488093 L42.4543426,18.9488093 L42.5903004,17.6911998 L42.5223216,17.6911998 C42.0691267,18.0877453 41.6074413,18.4304688 41.1372516,18.7193806 C40.6670619,19.0082923 40.1770522,19.152746 39.6672079,19.152746 C38.9647559,19.152746 38.4634165,18.9686384 38.1631749,18.6004175 C37.8629333,18.2321967 37.7128148,17.7308574 37.7128148,17.0963844 C37.7128148,16.9037767 37.721312,16.7225014 37.7383068,16.5525533 C37.7553016,16.3826052 37.7921232,16.1843354 37.8487726,15.957738 L38.9024455,10.6893737 L40.2110392,10.6893737 L39.174361,15.7877907 C39.1290415,16.0143882 39.0950524,16.1956635 39.0723926,16.331622 C39.0497329,16.4675803 39.0384032,16.6092016 39.0384032,16.75649 C39.0384032,17.1756952 39.1347057,17.492927 39.3273135,17.7081945 C39.5199214,17.923462 39.8314881,18.0310943 40.2620233,18.0310943 C40.5905896,18.0310943 40.9531401,17.9121324 41.3496856,17.674205 C41.7462312,17.4362778 42.1994192,17.0567328 42.7092635,16.5355586 L43.8818994,10.6893737 L45.1734984,10.6893737 L43.5250103,18.9488093 L43.5250103,18.9488093 Z M47.9096489,10.6893737 L49.2182426,10.6893737 L47.5527598,18.9488093 L46.2611608,18.9488093 L47.9096489,10.6893737 L47.9096489,10.6893737 Z M49.014306,8.97290655 C48.7877085,8.97290655 48.5922711,8.90776086 48.427988,8.77746723 C48.2637049,8.64717373 48.1815646,8.45740127 48.1815646,8.20814397 C48.1815646,7.92489719 48.2806995,7.68980594 48.4789722,7.50286303 C48.6772449,7.31592012 48.9066715,7.22245007 49.1672585,7.22245007 C49.393856,7.22245007 49.5892933,7.29042824 49.7535764,7.42638672 C49.9178596,7.5623452 50,7.75495015 50,8.00420732 C50,8.28745411 49.9008651,8.51971299 49.7025922,8.70099106 C49.5043195,8.88226898 49.2748931,8.97290655 49.014306,8.97290655 L49.014306,8.97290655 L49.014306,8.97290655 Z" id="ui" fill="#333333"></path>
                    </g>
                </g>
            </g>
        </g>
    </g>
</svg>