<?xml version="1.0" encoding="UTF-8" standalone="no"?>
<svg width="47px" height="20px" viewBox="0 0 47 20" version="1.1" xmlns="http://www.w3.org/2000/svg" xmlns:xlink="http://www.w3.org/1999/xlink" xmlns:sketch="http://www.bohemiancoding.com/sketch/ns">
    <!-- Generator: Sketch 3.4 (15588) - http://www.bohemiancoding.com/sketch -->
    <title>navis-ui-logo</title>
    <desc>Created with Sketch.</desc>
    <defs></defs>
    <g id="Page-1" stroke="none" stroke-width="1" fill="none" fill-rule="evenodd" sketch:type="MSPage">
        <g id="navis-ui-logo" sketch:type="MSLayerGroup" fill="#FFFFFF">
            <g id="Page-1" sketch:type="MSShapeGroup">
                <g id="navis-logo--inverted">
                    <g id="Group">
                        <path d="M34.615,11.565 C33.819,15.65 24.801,19.019 13.687,19.682 L16.446,14.854 C24.377,14.111 30.186,12.042 30.345,9.602 C30.557,6.525 21.777,4.058 10.69,4.058 C7.003,4.058 3.528,4.323 0.531,4.827 L0.584,4.562 C2.918,4.085 5.491,3.74 8.197,3.554 L10.85,4.88498131e-15 L13.29,3.342 C25.943,3.395 35.465,7.056 34.616,11.565 L34.615,11.565 L34.615,11.565 Z M10.716,11.141 C8.859,11.141 7.188,10.876 6.048,10.478 L10.716,19.178 L16.127,10.239 C14.88,10.796 12.917,11.141 10.716,11.141 L10.716,11.141 L10.716,11.141 Z" id="Shape"></path>
                    </g>
                </g>
                <path d="M42.0660765,19 L41.2641598,19 L41.3659905,18.0580662 L41.3150752,18.0580662 C40.9756379,18.3550738 40.6298413,18.6117694 40.2776751,18.8281607 C39.9255089,19.044552 39.5584978,19.152746 39.1766308,19.152746 C38.650503,19.152746 38.2750061,19.0148517 38.0501289,18.7390589 C37.8252517,18.4632661 37.7128148,18.0877692 37.7128148,17.6125569 C37.7128148,17.4682961 37.7191791,17.3325232 37.731908,17.2052342 C37.7446369,17.0779452 37.7722158,16.9294436 37.8146455,16.759725 L38.6038333,12.813786 L39.5839536,12.813786 L38.8074946,16.6324366 C38.7735509,16.8021553 38.7480935,16.9379282 38.7311216,17.0397594 C38.7141497,17.1415905 38.7056639,17.2476631 38.7056639,17.3579802 C38.7056639,17.6719597 38.7777933,17.9095623 38.9220541,18.070795 C39.066315,18.2320277 39.2996746,18.3126429 39.6221401,18.3126429 C39.8682321,18.3126429 40.1397779,18.2235419 40.4367855,18.0453373 C40.7337932,17.8671328 41.0732254,17.5828583 41.4550924,17.1925054 L42.333382,12.813786 L43.3007735,12.813786 L42.0660765,19 Z M45.350116,12.813786 L46.3302363,12.813786 L45.0828105,19 L44.115419,19 L45.350116,12.813786 Z M46.1774903,11.5281736 C46.0077716,11.5281736 45.8613915,11.4793803 45.7383455,11.381792 C45.6152995,11.2842038 45.5537774,11.1420666 45.5537774,10.955376 C45.5537774,10.7432277 45.6280282,10.5671473 45.776532,10.4271294 C45.9250358,10.2871115 46.0968734,10.2171036 46.2920498,10.2171036 C46.4617685,10.2171036 46.6081486,10.2680184 46.7311946,10.3698496 C46.8542407,10.4716808 46.9157628,10.6159395 46.9157628,10.80263 C46.9157628,11.0147783 46.841512,11.1887373 46.6930081,11.3245123 C46.5445043,11.4602872 46.3726668,11.5281736 46.1774903,11.5281736 L46.1774903,11.5281736 Z" id="ui"></path>
            </g>
        </g>
    </g>
</svg>