<?xml version="1.0" encoding="UTF-8" standalone="no"?>
<svg width="128px" height="27px" viewBox="0 0 128 27" version="1.1" xmlns="http://www.w3.org/2000/svg" xmlns:xlink="http://www.w3.org/1999/xlink">
    <!-- Generator: Sketch 3.8.3 (29802) - http://www.bohemiancoding.com/sketch -->
    <title>NAVIS-logo-no-tag[4]</title>
    <desc>Created with Sketch.</desc>
    <defs></defs>
    <g id="Symbols" stroke="none" stroke-width="1" fill="none" fill-rule="evenodd">
        <g id="components-/-SuiteHeader" transform="translate(-22.000000, -11.000000)">
            <g id="NAVIS-logo-no-tag[4]" transform="translate(22.000000, 11.000000)">
                <g id="Group">
                    <path d="M127.895368,13.6920223 C126.971117,18.5255346 116.385831,22.5329558 103.306812,23.3063177 L106.567847,17.5764086 C115.880109,16.6975881 122.716076,14.2368909 122.925341,11.3367835 C123.186921,7.69846695 112.845777,4.76320672 99.8365123,4.76320672 C95.4942779,4.76320672 91.413624,5.09715848 87.8910082,5.65960355 L87.9433243,5.36080461 C90.6986376,4.78078313 93.73297,4.37652573 96.906812,4.16560883 L99.9760218,0 L102.853406,3.95469192 C117.711172,4.04257397 128.906812,8.36637047 127.895368,13.6920223 L127.895368,13.6920223 Z M99.9934605,13.2174592 C97.7961853,13.2174592 95.8430518,12.9186603 94.5002725,12.4440973 L99.9760218,22.7614491 L106.341144,12.1804511 C104.893733,12.8132018 102.574387,13.2174592 99.9934605,13.2174592 L99.9934605,13.2174592 Z" id="Shape" fill="#EF6C00"></path>
                    <g transform="translate(0.000000, 9.315497)" fill="#FFFFFF">
                        <polygon id="Shape" points="11.4920981 11.3543599 2.91226158 0.386680988 2.8773842 0.333951763 0.0174386921 0.333951763 0.0174386921 17.1545747 3.10408719 17.1545747 3.10408719 5.78263841 11.9455041 17.1018455 11.9803815 17.1545747 14.5787466 17.1545747 14.5787466 0.333951763 11.4920981 0.333951763"></polygon>
                        <polygon id="Shape" points="30.5002725 0.210916903 37.8245232 17.1545747 34.4239782 17.1545747 29.1226158 4.74563031 23.8212534 17.1545747 20.4032698 17.1545747 27.7449591 0.210916903"></polygon>
                        <polygon id="Shape" points="48.706267 12.6198613 43.4049046 0.210916903 39.8997275 0.210916903 47.2414169 17.1545747 50.0839237 17.1545747 57.4256131 0.210916903 54.0076294 0.210916903"></polygon>
                        <rect id="Rectangle-path" x="63.6686649" y="0.333951763" width="3.13896458" height="16.820623"></rect>
                        <path d="M81.9792916,7.29420955 C78.7356948,6.52084757 78.160218,5.97597891 78.160218,4.81593594 L78.160218,4.76320672 C78.160218,3.67346939 79.1891008,2.93526023 80.706267,2.93526023 C82.1536785,2.93526023 83.5836512,3.48012889 85.0833787,4.60501904 L85.1880109,4.67532468 L86.879564,2.2673567 L86.7923706,2.19705107 C85.0310627,0.773361976 83.0604905,0.0878820428 80.7585831,0.0878820428 C77.3754768,0.0878820428 75.0212534,2.10916903 75.0212534,5.00927644 L75.0212534,5.06200566 C75.0212534,7.41724441 75.9280654,8.99912118 80.5841962,10.1240113 C83.653406,10.8446441 84.1940054,11.4773948 84.1940054,12.5319793 L84.1940054,12.5847085 C84.1940054,13.7799043 83.0953678,14.5356899 81.4038147,14.5356899 C79.5553134,14.5356899 77.9858311,13.8853628 76.2942779,12.4089444 L76.1896458,12.3210624 L74.2888283,14.5884191 L74.3760218,14.6763011 C76.3291553,16.433942 78.7182561,17.3654917 81.3166213,17.3654917 C84.9613079,17.3654917 87.3155313,15.3793575 87.3155313,12.2859096 L87.3155313,12.2331804 C87.33297,9.6670247 85.7983651,8.2257592 81.9792916,7.29420955 L81.9792916,7.29420955 Z" id="Shape"></path>
                    </g>
                </g>
            </g>
        </g>
    </g>
</svg>