<svg width="100" height="40" viewBox="0 0 100 40" xmlns="http://www.w3.org/2000/svg" xmlns:sketch="http://www.bohemiancoding.com/sketch/ns"><title>navis-logo--inverted</title><desc>Created with Sketch.</desc><g sketch:type="MSShapeGroup" fill="none"><path d="M16.578 17.613h4.324v21.167h-4.695l-11.804-15.862v15.862h-4.403v-21.167h5.093l11.485 15.358v-15.358zm39.947 16.844l5.889-11.83h3.82l-8.064 16.207h-3.422l-7.878-16.207h4.005l5.65 11.83zm-20.716-7.533l-5.889 11.83h-3.793l8.064-16.207h3.422l7.878 16.207h-4.032l-5.65-11.83zm36.737 11.83v-16.154h3.74v16.154h-3.74zm23.873-.61c-1.485.637-3.342.955-5.464.955-2.626 0-5.305-.477-7.639-1.432l1.406-2.255c2.175.902 4.138 1.326 6.419 1.326 1.379 0 2.281-.159 3.103-.531.981-.424 1.538-1.034 1.538-1.83 0-1.167-1.061-1.91-3.66-2.414l-2.944-.584c-1.883-.398-3.342-1.114-4.164-2.095-.584-.663-.902-1.406-.902-2.228 0-2.865 3.263-4.854 7.878-4.854 2.679 0 5.597.61 7.454 1.592l-1.698 2.042c-1.857-.849-3.74-1.3-5.597-1.3-2.414 0-4.032.796-4.032 2.095 0 1.008.902 1.565 3.263 2.095l2.838.557c1.618.345 3.236.902 4.164 1.671.955.743 1.485 1.804 1.485 2.918 0 1.751-1.3 3.395-3.448 4.271z" fill="#fff"/><path d="M84.615 11.565c-.796 4.085-9.814 7.454-20.928 8.117l2.759-4.828c7.931-.743 13.74-2.812 13.899-5.252.212-3.077-8.568-5.544-19.655-5.544-3.687 0-7.162.265-10.159.769l.053-.265c2.334-.477 4.907-.822 7.613-1.008l2.653-3.554 2.44 3.342c12.653.053 22.175 3.714 21.326 8.223zm-23.899-.424c-1.857 0-3.528-.265-4.668-.663l4.668 8.7 5.411-8.939c-1.247.557-3.21.902-5.411.902z" fill="#F47B20"/></g></svg>