<svg xmlns="http://www.w3.org/2000/svg" viewBox="0 0 376.5 147.4" enable-background="new 0 0 376.5 147.4"><path fill="#333" d="M62.5 66.4h16.3v79.8h-17.7l-44.5-59.8v59.8h-16.6v-79.8h19.2l43.3 57.9v-57.9zm150.6 63.5l22.2-44.6h14.4l-30.4 61.1h-12.9l-29.7-61.1h15.1l21.3 44.6zm-78.1-28.4l-22.2 44.6h-14.3l30.4-61.1h12.9l29.7 61.1h-15.2l-21.3-44.6zm138.5 44.6v-60.9h14.1v60.9h-14.1zm90-2.3c-5.6 2.4-12.6 3.6-20.6 3.6-9.9 0-20-1.8-28.8-5.4l5.3-8.5c8.2 3.4 15.6 5 24.2 5 5.2 0 8.6-.6 11.7-2 3.7-1.6 5.8-3.9 5.8-6.9 0-4.4-4-7.2-13.8-9.1l-11.1-2.2c-7.1-1.5-12.6-4.2-15.7-7.9-2.2-2.5-3.4-5.3-3.4-8.4 0-10.8 12.3-18.3 29.7-18.3 10.1 0 21.1 2.3 28.1 6l-6.4 7.7c-7-3.2-14.1-4.9-21.1-4.9-9.1 0-15.2 3-15.2 7.9 0 3.8 3.4 5.9 12.3 7.9l10.7 2.1c6.1 1.3 12.2 3.4 15.7 6.3 3.6 2.8 5.6 6.8 5.6 11 0 6.6-4.9 12.8-13 16.1z"/><path fill="#F47B20" d="M319 43.6c-3 15.4-37 28.1-78.9 30.6l10.4-18.2c29.9-2.8 51.8-10.6 52.4-19.8.8-11.6-32.3-20.9-74.1-20.9-13.9 0-27 1-38.3 2.9l.2-1c8.8-1.8 18.5-3.1 28.7-3.8l10-13.4 9.2 12.6c47.7.2 83.6 14 80.4 31zm-90.1-1.6c-7 0-13.3-1-17.6-2.5l17.6 32.8 20.4-33.7c-4.7 2.1-12.1 3.4-20.4 3.4z"/></svg>